<?xml version="1.0" encoding="utf-8"?>
<!-- Generator: Adobe Illustrator 27.5.0, SVG Export Plug-In . SVG Version: 6.00 Build 0)  -->
<svg version="1.1" xmlns="http://www.w3.org/2000/svg" xmlns:xlink="http://www.w3.org/1999/xlink" x="0px" y="0px"
	 viewBox="0 0 3710 3710" style="enable-background:new 0 0 3710 3710;" xml:space="preserve">

<g id="Illustration">
	<g>
		<path style="fill:url(#SVGID_1_);" d="M2931.493,2861.231c-56.869,59.652-110.678,98.121-153.192,128.514
			c-499.737,357.266-1091.059,253.125-1216.732,227.692c-185.579-37.555-544.299-110.149-803.647-414.03
			C365.55,2343.66,426.648,1619.341,730.999,1141.208c55.67-87.459,349.738-572.874,947.429-650.72
			c361.716-47.111,783.361,47.906,1088.704,302.795C3408.075,1328.319,3362.447,2409.183,2931.493,2861.231z"/>
		<g style="opacity:0.82;">
			<path style="fill:#BDD0FB;" d="M1307.054,3065.488c0,0,99.528-305.905-80.235-713.762
				c-166.788-378.421-591.09-1267.333-614.797-1685.566c-1.049-18.528-25.223-21.623-31.534-3.994
				c-67.69,189.101-202.373,675.338-59.433,1255.644C705.383,2666.145,1307.054,3065.488,1307.054,3065.488z"/>
			<path style="opacity:0.6;fill:#FFFFFF;" d="M597.747,1042.116c-9.466,43.396-13.792,87.695-15.761,131.867
				c-0.276,5.525-0.656,11.055-0.848,16.581l-0.261,16.574l-0.506,33.171l0.808,33.107c0.365,11.029,0.295,22.116,1.311,33.078
				c5.297,88.025,17.41,175.449,36.818,260.79c4.012,21.592,10.196,42.512,15.605,63.677c5.734,21.053,10.559,42.448,17.535,63.052
				l19.584,62.325c3.041,10.485,7.139,20.52,10.851,30.72l11.349,30.511l11.351,30.512l5.721,15.236l6.389,14.911l25.561,59.648
				c4.333,9.894,8.362,19.99,12.946,29.719l13.708,29.217l27.417,58.432c37.219,77.535,74.972,154.785,114.547,230.929
				c19.507,38.243,39.602,76.115,59.506,114.103l60.864,113.202c40.645,75.389,81.388,150.677,119.658,227.285
				c9.829,19.021,18.716,38.519,27.933,57.864c4.724,9.618,8.801,19.545,13.101,29.371c4.199,9.871,8.667,19.629,12.65,29.6
				c7.554,20.115,15.841,39.968,22.021,60.648c7.281,20.301,12.037,41.434,17.447,62.411l0.036,0.138
				c0.355,1.376,1.713,2.145,3.033,1.719c1.267-0.409,2.037-1.778,1.785-3.103c-8.322-43.1-21.053-84.938-36.233-125.587
				c-3.776-10.169-8.029-20.101-12.023-30.167c-4.092-10.015-7.971-20.154-12.48-29.941c-8.794-19.697-17.279-39.594-26.677-58.943
				c-36.777-77.911-76.955-153.693-116.417-229.808l-59.251-114.102c-19.63-38.086-39.479-76.045-58.711-114.353
				c-38.868-76.388-76.57-153.429-113.672-230.808l-27.316-58.316l-13.658-29.157c-4.565-9.714-8.63-19.622-12.97-29.423
				l-25.658-58.964l-6.416-14.741l-5.747-15.059l-11.407-30.16c-31.422-79.997-56.277-162.912-76.974-246.998
				c-21.042-84.042-34.89-170.344-42.003-257.512c-1.239-10.861-1.368-21.837-2.15-32.752l-1.9-32.805l-0.592-32.908l-0.289-16.466
				c0.008-5.491,0.203-10.986,0.295-16.481c0.309-10.988,0.297-21.992,0.869-32.985l1.97-32.986
				c1.971-21.943,3.768-43.996,7.849-65.745c0.041-0.174-0.059-0.346-0.222-0.383
				C597.959,1041.825,597.792,1041.948,597.747,1042.116z"/>
		</g>
		<g style="opacity:0.83;">
			<path style="fill:#91B3FA;" d="M1013.924,463.435c6.248-13.605,25.373-9.898,25.764,5.011
				c3.786,144.138,24.929,521.374,141.316,745.788c189.505,365.398,246.744,901.025,18.878,1119.115
				C1199.882,2333.348,333.157,1945.868,1013.924,463.435z"/>
			<path style="opacity:0.6;fill:#FFFFFF;" d="M994.33,663.355c-0.651,4.302-0.903,8.16-1.313,12.184l-0.983,11.964l-1.714,23.925
				c-1.057,15.951-1.954,31.905-2.81,47.86c-1.623,31.912-2.871,63.831-3.842,95.752c-1.857,63.842-2.151,127.673-1.498,191.459
				c0.599,63.792,2.759,127.514,6.154,191.119l1.234,23.856l1.532,23.827c1.086,15.878,1.896,31.787,3.236,47.637l3.708,47.585
				l4.388,47.501c12.331,126.568,30.924,252.352,57.952,375.93c0.844,3.861,1.622,7.74,2.519,11.587l2.767,11.518l5.534,23.035
				l5.534,23.032c1.935,7.649,4.065,15.239,6.088,22.861l6.144,22.841c2.109,7.593,3.948,15.276,6.323,22.778l13.609,45.221
				c19.22,59.883,40.959,118.811,66.521,175.785c0.339,0.757,1.205,1.06,1.933,0.675c0.717-0.378,1.033-1.281,0.718-2.032
				l-0.008-0.018c-24.202-57.516-45.191-116.527-63.435-176.561l-13.136-45.224c-2.296-7.499-4.056-15.186-6.087-22.776
				l-5.908-22.836c-1.944-7.62-3.995-15.205-5.852-22.851l-5.299-23.024l-5.299-23.022l-2.649-11.51
				c-0.858-3.844-1.597-7.721-2.402-11.58l-9.554-46.334c-3.092-15.468-5.78-31.04-8.69-46.554
				c-1.405-7.77-2.91-15.515-4.234-23.304l-3.803-23.404l-3.803-23.403c-1.296-7.795-2.54-15.601-3.602-23.446
				c-9.483-62.557-16.609-125.564-23.137-188.641c-12.59-126.252-19.049-253.355-21.689-380.646
				c-1.22-63.657-1.263-127.385-0.165-191.134c0.514-31.874,1.305-63.755,2.47-95.634c0.627-15.938,1.295-31.877,2.123-47.811
				l1.37-23.892l0.809-11.935c0.332-3.932,0.595-8.05,1.058-11.674l0.043-0.337c0.107-0.839-0.446-1.588-1.237-1.674
				C995.171,661.945,994.454,662.536,994.33,663.355z"/>
		</g>
		<path style="fill:#91B3FA;" d="M2865.144,2099.476c24.559,39.336,50.298,95.529,44.055,151.722
			c-11.4,102.596-168.756,148.195-306.669,91.194c-98.311-40.629-56.46-173.94-24.32-247.155
			c10.184-23.2-6.655-49.232-31.992-49.232l-355.191,0v-400.086c0-34.934,36.974-57.402,67.942-41.234
			c37.108,19.37,85.898,39.927,137.25,48.034c108.294,17.099,216.591-102.597,205.192-216.594
			c-11.401-113.992-119.696-199.49-233.693-193.791c-39.426,1.97-72.234,18.457-98.289,39.183
			c-29.997,23.858-74.387,1.148-74.387-37.183V894.651c0,0,656.262,0,675.128,0h307.44c31.26,0,56.668,25.197,56.905,56.457
			c1.288,170.274,5.028,668.708,4.865,694.868l-2.464,400.031l-342.384,0C2867.079,2046.006,2850.606,2076.189,2865.144,2099.476z"
			/>
		
			<linearGradient id="SVGID_00000149341243043335433790000001531885837231325326_" gradientUnits="userSpaceOnUse" x1="1787.2715" y1="3444.2065" x2="3713.9917" y2="1645.2274">
			<stop  offset="0" style="stop-color:#4F52FF"/>
			<stop  offset="1" style="stop-color:#4042E2"/>
		</linearGradient>
		<path style="fill:url(#SVGID_00000149341243043335433790000001531885837231325326_);" d="M2502.063,3140.365h-311.036v-335.204
			c0-33.547-34.236-55.89-65.146-42.85c-33.777,14.249-79.666,27.823-135.245,30.369c-124.498,5.699-219.277-96.898-200.388-239.39
			c18.891-142.498,140.091-176.697,199.185-159.597c30.853,8.93,84.434,43.161,128.603,73.841
			c30.836,21.42,72.99-0.676,72.99-38.222v-383.304l355.191,0c25.337,0,42.176,26.032,31.992,49.232
			c-32.14,73.214-73.99,206.526,24.32,247.155c137.913,57.001,295.269,11.401,306.669-91.194
			c6.243-56.194-19.496-112.386-44.055-151.722c-14.538-23.287,1.935-53.47,29.388-53.47l342.384,0c0,0,8.167,694.264,7.917,735.982
			l-1.786,298.26c-0.199,33.26-27.218,60.117-60.478,60.117l-242.995,0C2899.84,3140.365,2539.897,3140.365,2502.063,3140.365z"/>
		
			<linearGradient id="SVGID_00000170957991182648775210000003938738542426933655_" gradientUnits="userSpaceOnUse" x1="2104.9485" y1="1731.6564" x2="1519.2092" y2="2923.3325">
			<stop  offset="0" style="stop-color:#FF928E"/>
			<stop  offset="1" style="stop-color:#FE7062"/>
		</linearGradient>
		<path style="fill:url(#SVGID_00000170957991182648775210000003938738542426933655_);" d="M1510.619,3142.131h-260.764
			c-41.107,0-74.431-33.324-74.431-74.431v-246.62c0-36.361,0.721-374.028,0.721-411.011v-372.612h344.024
			c28.354,0,44.987-32.24,28.221-55.107c-80.521-109.823-10.259-266.129,49.857-292.579
			c71.249-31.352,216.594-39.902,259.342,119.696c22.263,83.123,1.836,143.827-22.852,182.915
			c-14.706,23.285,1.568,53.627,29.108,53.627l327.181-0.002v383.304c0,37.546-42.154,59.642-72.99,38.222
			c-44.168-30.68-97.75-64.911-128.603-73.841c-59.094-17.099-180.294,17.099-199.185,159.597
			c-18.89,142.493,75.889,245.089,200.388,239.39c55.579-2.546,101.468-16.12,135.245-30.369
			c30.91-13.039,65.146,9.303,65.146,42.85v335.204h-304.912C1847.007,3140.365,1551.468,3142.131,1510.619,3142.131z"/>
		<g>
			
				<linearGradient id="SVGID_00000123428388418487450470000003387725563759091107_" gradientUnits="userSpaceOnUse" x1="-612.3156" y1="517.8636" x2="-374.8938" y2="1058.0519" gradientTransform="matrix(-0.92 -0.392 -0.392 0.92 1017.703 669.7761)">
				<stop  offset="0" style="stop-color:#FEBBBA"/>
				<stop  offset="1" style="stop-color:#FF928E"/>
			</linearGradient>
			<path style="fill:url(#SVGID_00000123428388418487450470000003387725563759091107_);" d="M1545.313,1273.121
				c0,0-245.105,260.794-479.48,275.076c0,0,19.598,132.325,50.445,152.989c0,0,318.959-176.215,432.22-383.671L1545.313,1273.121z"
				/>
			
				<linearGradient id="SVGID_00000112633952699563530870000015868204422014760373_" gradientUnits="userSpaceOnUse" x1="1244.1519" y1="1920.1437" x2="2877.5786" y2="-410.3539">
				<stop  offset="0" style="stop-color:#4F52FF"/>
				<stop  offset="1" style="stop-color:#4042E2"/>
			</linearGradient>
			<path style="fill:url(#SVGID_00000112633952699563530870000015868204422014760373_);" d="M1889.125,1637.107
				c22.185-35.127,40.542-89.677,20.535-164.375c-38.416-143.421-169.028-135.738-233.056-107.564
				c-54.022,23.769-117.163,164.232-44.803,262.924c15.066,20.549,0.12,49.521-25.361,49.521h-309.154l-9.608-999.231
				c-0.191-19.871,15.961-36.031,35.831-35.849l850.618,7.754c21.476,0.196,38.783,17.661,38.783,39.139v275.457
				c0,34.795,40.148,54.48,67.463,32.927c23.314-18.396,52.591-32.969,87.71-34.724c102.442-5.121,199.76,71.71,210.006,174.149
				c10.244,102.442-87.076,210.006-184.394,194.64c-46.147-7.285-89.991-25.758-123.338-43.165
				c-27.829-14.529-61.056,5.661-61.056,37.054v359.533l-294.018,0.002C1890.534,1685.299,1875.91,1658.032,1889.125,1637.107z"/>
			<g>
				
					<linearGradient id="SVGID_00000100352808638550218150000011973137548309681540_" gradientUnits="userSpaceOnUse" x1="-415.2981" y1="1088.3538" x2="-286.7818" y2="1410.7343" gradientTransform="matrix(-1 0 0 1 620.9663 0)">
					<stop  offset="0" style="stop-color:#09005D"/>
					<stop  offset="1" style="stop-color:#1A0F91"/>
				</linearGradient>
				<path style="fill:url(#SVGID_00000100352808638550218150000011973137548309681540_);" d="M960.062,1261.768
					c0,0-43.326,21.074-51.292,45.283c-6.392,19.425-54.299,21.929-59.031,60.131c-2.444,19.725-17.04,35.52-36.685,38.531
					c-48.929,7.5-124.333,32.908-136.397,117.86c-9.209,64.842,23.847,89.43,58.537,97.941c25.48,6.25,42.413,31.033,37.259,56.757
					c-4.943,24.674,2.429,53.197,45.173,75.752c95.788,50.543,191.448-119.743,191.448-119.743l19.604-297.33L960.062,1261.768z"/>
				
					<linearGradient id="SVGID_00000063624042693928492210000017959149703580851100_" gradientUnits="userSpaceOnUse" x1="54.5028" y1="3152.2673" x2="163.4796" y2="3152.2673" gradientTransform="matrix(-1 0 0 1 620.9663 0)">
					<stop  offset="0" style="stop-color:#09005D"/>
					<stop  offset="1" style="stop-color:#1A0F91"/>
				</linearGradient>
				<path style="fill:url(#SVGID_00000063624042693928492210000017959149703580851100_);" d="M566.334,3126.132l-6.198,50.957
					c-1.176,9.666-8.788,17.311-18.462,18.416c-16.336,1.867-42.549,3.779-68.198,1.068c-11.258-1.19-18.566-12.59-15.138-23.378
					c6.253-19.671,17.691-49.201,34.183-66.578h56.527C559.498,3106.615,567.596,3115.757,566.334,3126.132z"/>
				
					<linearGradient id="SVGID_00000108295860659896964700000003137865567052215685_" gradientUnits="userSpaceOnUse" x1="-405.9813" y1="3582.0129" x2="-249.1556" y2="1749.1113" gradientTransform="matrix(-1 0 0 1 620.9663 0)">
					<stop  offset="0" style="stop-color:#FEBBBA"/>
					<stop  offset="1" style="stop-color:#FF928E"/>
				</linearGradient>
				<path style="fill:url(#SVGID_00000108295860659896964700000003137865567052215685_);" d="M1009.073,2529.205l9.541,56.124
					c0,0-31.951,323.632-37.634,453.084c-0.891,20.295,4.359,40.352,15.012,57.65l55.556,90.219l-141.196-83.319l-2.812-17.23
					l23.115-31.78l-30.276-362.548c-1.779-21.298,2.616-42.658,12.659-61.524l29.205-54.866L1009.073,2529.205z"/>
				
					<linearGradient id="SVGID_00000133522827555877360270000006883188983833598898_" gradientUnits="userSpaceOnUse" x1="-451.7947" y1="3132.3711" x2="-275.4617" y2="3132.3711" gradientTransform="matrix(-1 0 0 1 620.9663 0)">
					<stop  offset="0" style="stop-color:#09005D"/>
					<stop  offset="1" style="stop-color:#1A0F91"/>
				</linearGradient>
				<path style="fill:url(#SVGID_00000133522827555877360270000006883188983833598898_);" d="M1060.846,3199.353h-45.059
					c-8.433,0-16.387-3.872-21.531-10.556c-14.046-18.252-43.15-53.863-57.066-54.792c-18.734-1.25-16.337,65.349-16.337,65.349
					h-10.501l-13.301-82.757c-3.347-20.822,7.008-41.449,25.706-51.206l0,0c0,0,4.282,31.669,27.503,45.677
					c23.22,14.01,94.49,64.175,94.49,64.175s8.728-1.245,18.313,0.488C1077.279,3178.299,1075.294,3199.353,1060.846,3199.353z"/>
				
					<linearGradient id="SVGID_00000133498618665041582040000015364502370086375599_" gradientUnits="userSpaceOnUse" x1="-90.5166" y1="3609.2859" x2="66.3505" y2="1775.9008" gradientTransform="matrix(-1 0 0 1 620.9663 0)">
					<stop  offset="0" style="stop-color:#FEBBBA"/>
					<stop  offset="1" style="stop-color:#FF928E"/>
				</linearGradient>
				<path style="fill:url(#SVGID_00000133498618665041582040000015364502370086375599_);" d="M815.68,2555.861
					c0,0-187.175,355.054-216.93,436.119c-29.754,81.064-40.177,148.69-40.576,155.094c-0.624,10.007-13.07,19.604-47.377,19.604
					c-17.704,0-26.376-7.098-30.622-13.967c-3.623-5.861-3.809-13.195-0.757-19.372c10.827-21.911,45.187-91.937,57.913-123.697
					c15.193-37.92,47.875-209.77,65.799-269.519c17.924-59.75,38.184-124.562,116.237-184.263
					C719.367,2555.861,772.949,2503.382,815.68,2555.861z"/>
				
					<linearGradient id="SVGID_00000070806120601252913550000011104797910525633423_" gradientUnits="userSpaceOnUse" x1="1760.9001" y1="183.8075" x2="1558.922" y2="607.9626">
					<stop  offset="0" style="stop-color:#FF928E"/>
					<stop  offset="1" style="stop-color:#FE7062"/>
				</linearGradient>
				<path style="fill:url(#SVGID_00000070806120601252913550000011104797910525633423_);" d="M933.923,1974.088
					c48.282-204.594-74.032-320.31-74.032-320.31c77.178-74.082,217.796-107.792,217.796-107.792s134.18,98.098,118.263,174.881
					c-9.33,45.003-94.316,269.558-94.316,269.558S1023.047,2027.616,933.923,1974.088z"/>
				
					<linearGradient id="SVGID_00000098203281771610405930000004728601479523123896_" gradientUnits="userSpaceOnUse" x1="-525.6497" y1="1552.8866" x2="15.53" y2="3431.9829" gradientTransform="matrix(-1 0 0 1 620.9663 0)">
					<stop  offset="0" style="stop-color:#09005D"/>
					<stop  offset="1" style="stop-color:#1A0F91"/>
				</linearGradient>
				<path style="fill:url(#SVGID_00000098203281771610405930000004728601479523123896_);" d="M826.873,2075.376
					c19.649-59.196,107.05-101.288,107.05-101.288c89.125,53.528,167.711,16.336,167.711,16.336s17.624,67.365,5.46,129.968
					c-12.164,62.604-88.48,464.937-88.48,464.937c-120.249,24.365-305.189-24.513-305.189-24.513
					C790.018,2424.829,807.223,2134.572,826.873,2075.376z"/>
				
					<linearGradient id="SVGID_00000078046193085265497560000010446205383814042775_" gradientUnits="userSpaceOnUse" x1="-423.1798" y1="1775.3207" x2="-393.7206" y2="1559.8043" gradientTransform="matrix(-1 0 0 1 620.9663 0)">
					<stop  offset="0" style="stop-color:#FEBBBA"/>
					<stop  offset="1" style="stop-color:#FF928E"/>
				</linearGradient>
				<path style="fill:url(#SVGID_00000078046193085265497560000010446205383814042775_);" d="M989.968,1410.782l-39.255,176.326
					c-3.758,15.531,10.4,12.989,26.102,10.029c25.715-4.848,58.859-14.833,69.938-34.843c1.127-2.036,1.691-4.338,2.009-6.645
					l16.864-122.268c1.338-9.701-3.906-19.115-12.858-23.085l-32.543-14.43C1007.694,1390.311,993.192,1397.46,989.968,1410.782z"/>
				
					<linearGradient id="SVGID_00000078045266975563369800000006386950801316883625_" gradientUnits="userSpaceOnUse" x1="6710.2495" y1="4886.9233" x2="7083.4814" y2="4886.9233" gradientTransform="matrix(0.447 0.8946 0.8946 -0.447 -6266.7466 -2292.5178)">
					<stop  offset="0" style="stop-color:#FEBBBA"/>
					<stop  offset="1" style="stop-color:#FF928E"/>
				</linearGradient>
				<path style="fill:url(#SVGID_00000078045266975563369800000006386950801316883625_);" d="M838.189,1708.242
					c0,0,359.073,438.455,627.341-60.782c0,0,5.149-12.757,1.931-31.185c-1.626-9.304,4.527-42.3,7.907-59.16
					c1.087-5.42-2.765-10.542-8.267-11.073l0,0c-4.311-0.415-8.537,1.395-11.212,4.801l-49.001,62.4
					c-3.654,12.356,2.232,25.531,13.872,31.055l0,0c7.425,3.524,9.767,12.955,4.783,19.49
					c-204.018,267.437-545.257-26.029-551.502-22.582C851.885,1653.434,826.288,1666.954,838.189,1708.242z"/>
				<g>
					
						<linearGradient id="SVGID_00000026862753978355871520000007414062885068909961_" gradientUnits="userSpaceOnUse" x1="-497.536" y1="1497.4545" x2="-240.5025" y2="1040.0212" gradientTransform="matrix(-1 0 0 1 620.9663 0)">
						<stop  offset="0" style="stop-color:#FEBBBA"/>
						<stop  offset="1" style="stop-color:#FF928E"/>
					</linearGradient>
					<path style="fill:url(#SVGID_00000026862753978355871520000007414062885068909961_);" d="M1036.025,1242.896
						c0,0,46.491,19.631,78.102,86.812c31.611,67.181,8.005,98.2-21.647,102.458c-29.653,4.258-73.997,3.61-120.902-39.788
						C924.674,1348.98,975.589,1219.626,1036.025,1242.896z"/>
					
						<linearGradient id="SVGID_00000020359489520049733110000009136687089262869426_" gradientUnits="userSpaceOnUse" x1="-442.261" y1="1099.1017" x2="-313.7446" y2="1421.4822" gradientTransform="matrix(-1 0 0 1 620.9663 0)">
						<stop  offset="0" style="stop-color:#09005D"/>
						<stop  offset="1" style="stop-color:#1A0F91"/>
					</linearGradient>
					<path style="fill:url(#SVGID_00000020359489520049733110000009136687089262869426_);" d="M1003.109,1356.512
						c0,0-35.076-98.289,52.065-99.451l20.506,14.332c0,0,31.973-54.495-20.506-80.508c-52.479-26.013-113.898-4.526-136.231,66.176
						c-22.332,70.702-26.145,118.031,11.009,151.857c37.154,33.827,52.466-4.529,52.466-4.529s-20.233-31.639-11.996-48.566
						c8.237-16.926,27.235,3.502,27.235,3.502L1003.109,1356.512z"/>
					
						<linearGradient id="SVGID_00000162332649194187882120000013145174320896918708_" gradientUnits="userSpaceOnUse" x1="-442.8238" y1="1528.1985" x2="-185.7899" y2="1070.7646" gradientTransform="matrix(-1 0 0 1 620.9663 0)">
						<stop  offset="0" style="stop-color:#FEBBBA"/>
						<stop  offset="1" style="stop-color:#FF928E"/>
					</linearGradient>
					<path style="fill:url(#SVGID_00000162332649194187882120000013145174320896918708_);" d="M993.336,1367.46
						c0,0-17.735-50.632-41.392-30.468c-23.658,20.163,19.228,46.769,36.017,55.387L993.336,1367.46z"/>
				</g>
			</g>
		</g>
		<g>
			
				<linearGradient id="SVGID_00000131364066178931561160000011347418381595075743_" gradientUnits="userSpaceOnUse" x1="10010.3008" y1="3041.6487" x2="9307.5684" y2="3806.0254" gradientTransform="matrix(-1 0.0095 0.0095 1 12543.6113 -63.4747)">
				<stop  offset="0" style="stop-color:#09005D"/>
				<stop  offset="1" style="stop-color:#1A0F91"/>
			</linearGradient>
			<path style="fill:url(#SVGID_00000131364066178931561160000011347418381595075743_);" d="M2784.882,3128.094
				c0,0,7.671,41.132,11.628,81.884c1.547,15.926-10.61,29.883-26.59,30.702c-54.292,2.78-170.431,8.288-212.138,6.824
				c-6.27-0.22-10.429-6.596-8.165-12.447c1.897-4.903,5.608-8.888,10.364-11.128l191.066-90.031L2784.882,3128.094z"/>
			
				<linearGradient id="SVGID_00000040560476372465371550000000548496827955279281_" gradientUnits="userSpaceOnUse" x1="9782.2041" y1="3098.4126" x2="9844.625" y2="3098.4126" gradientTransform="matrix(-1 0.0095 0.0095 1 12543.6113 -63.4747)">
				<stop  offset="0" style="stop-color:#FEBBBA"/>
				<stop  offset="1" style="stop-color:#FF928E"/>
			</linearGradient>
			<path style="fill:url(#SVGID_00000040560476372465371550000000548496827955279281_);" d="M2790.614,3103.829l-5.377,49.338
				c0,0-33.469,15.97-56.594-1.432l13.398-55.054L2790.614,3103.829z"/>
			
				<linearGradient id="SVGID_00000174561421372016470900000015584929965536976548_" gradientUnits="userSpaceOnUse" x1="10065.6729" y1="2177.1614" x2="9467.6729" y2="2987.6729" gradientTransform="matrix(-1 0.0095 0.0095 1 12543.6113 -63.4747)">
				<stop  offset="0" style="stop-color:#09005D"/>
				<stop  offset="1" style="stop-color:#1A0F91"/>
			</linearGradient>
			<path style="fill:url(#SVGID_00000174561421372016470900000015584929965536976548_);" d="M2777.38,2177.338
				c2.648,12.846,19.684,642.109-44.9,924.794c-1.054,4.612,1.324,9.334,5.721,11.081c10.358,4.118,30.646,10.03,54.896,10.612
				c7.51,0.181,14.195-4.763,16.244-11.99c18.606-65.621,107.626-394.364,116.659-707.676c10.094-350.097-0.114-11.916-0.114-11.916
				l-9.942-216.254L2777.38,2177.338z"/>
			
				<linearGradient id="SVGID_00000043418014902288081070000015508008284304133566_" gradientUnits="userSpaceOnUse" x1="9852.6543" y1="2896.6899" x2="9149.8916" y2="3661.0994" gradientTransform="matrix(-1 0.0095 0.0095 1 12543.6113 -63.4747)">
				<stop  offset="0" style="stop-color:#09005D"/>
				<stop  offset="1" style="stop-color:#1A0F91"/>
			</linearGradient>
			<path style="fill:url(#SVGID_00000043418014902288081070000015508008284304133566_);" d="M3005.845,3147.482
				c0,0,11.783,20.69,23.527,75.854c2.12,9.963-4.763,19.582-14.89,20.676c-17.918,1.935-45.505,4.466-67.623,4.525
				c-10.195,0.027-18.236-8.775-17.105-18.907c2.257-20.198,9.573-53.371,32.904-79.394L3005.845,3147.482z"/>
			
				<linearGradient id="SVGID_00000075154231061156040600000003782671089134192300_" gradientUnits="userSpaceOnUse" x1="9557.2344" y1="3095.2026" x2="9611.1279" y2="3095.2026" gradientTransform="matrix(-1 0.0095 0.0095 1 12543.6113 -63.4747)">
				<stop  offset="0" style="stop-color:#FEBBBA"/>
				<stop  offset="1" style="stop-color:#FF928E"/>
			</linearGradient>
			<path style="fill:url(#SVGID_00000075154231061156040600000003782671089134192300_);" d="M3015.415,3083.997l-12.952,74.659
				c0,0-13.414,10.177-40.207,3.147l5.757-80.25L3015.415,3083.997z"/>
			
				<linearGradient id="SVGID_00000163791375509247766470000006432141980469211565_" gradientUnits="userSpaceOnUse" x1="9959.0928" y1="2098.5281" x2="9361.0996" y2="2909.03" gradientTransform="matrix(-1 0.0095 0.0095 1 12543.6113 -63.4747)">
				<stop  offset="0" style="stop-color:#09005D"/>
				<stop  offset="1" style="stop-color:#1A0F91"/>
			</linearGradient>
			<path style="fill:url(#SVGID_00000163791375509247766470000006432141980469211565_);" d="M3043.839,2194.111
				c58.19,331.536-4.105,820.829-25.774,916.686c-1.327,5.869-6.01,10.4-11.936,11.441c-10.063,1.766-26.646,3.288-43.052-1.308
				c-5.652-1.583-9.662-6.63-9.947-12.493c-3.767-77.294-2.843-552.036-55.9-739.146c-2.689-9.482-8.574-17.719-16.661-23.353
				l-100.182-69.791l-8.72-114.274L3043.839,2194.111z"/>
			<g>
				
					<linearGradient id="SVGID_00000159435589710966530050000006916489725792071594_" gradientUnits="userSpaceOnUse" x1="3000.8967" y1="757.3661" x2="2910.0061" y2="1191.621">
					<stop  offset="0" style="stop-color:#FF928E"/>
					<stop  offset="1" style="stop-color:#FE7062"/>
				</linearGradient>
				<path style="fill:url(#SVGID_00000159435589710966530050000006916489725792071594_);" d="M2687.236,1568.265
					c164.865-4.297,347.24,39.987,347.24,39.987c51.887,286.321,14.486,617.5,14.486,617.5
					c-127.334,34.694-271.849-17.876-271.849-17.876c-22.361-119.669-124.572-456.083-124.572-456.083
					c-80.659-9.23-147.249-31.841-202.197-62.05c41.228-48.722,60.295-110.4,68.484-146.829
					C2577.301,1560.476,2636.386,1569.591,2687.236,1568.265z"/>
				
					<linearGradient id="SVGID_00000046310308941551574590000007826813464868793279_" gradientUnits="userSpaceOnUse" x1="10039.1367" y1="1469.8983" x2="10358.0518" y2="1469.8983" gradientTransform="matrix(-1 0.0095 0.0095 1 12543.6113 -63.4747)">
					<stop  offset="0" style="stop-color:#FEBBBA"/>
					<stop  offset="1" style="stop-color:#FF928E"/>
				</linearGradient>
				<path style="fill:url(#SVGID_00000046310308941551574590000007826813464868793279_);" d="M2197.863,1330.038
					c16.011-19.719,36.6-10.66,36.6-10.66c25.243,102.266,153.266,184.16,284.366,223.536
					c-8.189,36.429-27.256,98.108-68.484,146.829C2232.253,1569.843,2197.863,1330.038,2197.863,1330.038z"/>
			</g>
			<g>
				
					<linearGradient id="SVGID_00000039840819710842182110000009179013112031964587_" gradientUnits="userSpaceOnUse" x1="159.7231" y1="1415.516" x2="373.7173" y2="1902.401" gradientTransform="matrix(1 -0.0095 0.0095 1 2096.8855 36.7017)">
					<stop  offset="0" style="stop-color:#FEBBBA"/>
					<stop  offset="1" style="stop-color:#FF928E"/>
				</linearGradient>
				<path style="fill:url(#SVGID_00000039840819710842182110000009179013112031964587_);" d="M2201.843,1334.975
					c-1.644,5.405,18.062,13.422,29.408-8.725c0.303-10.565,6.294-55.873-0.099-64.418
					c-34.049-45.503-99.763-102.325-99.763-102.325c-10.91,10.973-1.735,21.561-1.735,21.561l31.927,32.631
					c-6.498,12.012-14.468,22.176-18.11,36.664c-2.759,10.973-0.896,22.653,4.728,32.562c5.645,9.945,13.339,22.868,20.594,32.97
					C2182.524,1335.016,2201.843,1334.975,2201.843,1334.975z"/>
				
					<linearGradient id="SVGID_00000022545200797583597910000008716198057336231080_" gradientUnits="userSpaceOnUse" x1="10356.5225" y1="1254.2983" x2="10445.8145" y2="1117.0116" gradientTransform="matrix(-1 0.0095 0.0095 1 12543.6113 -63.4747)">
					<stop  offset="0" style="stop-color:#FEBBBA"/>
					<stop  offset="1" style="stop-color:#FF928E"/>
				</linearGradient>
				<path style="fill:url(#SVGID_00000022545200797583597910000008716198057336231080_);" d="M2175.612,1234.936l29.042,24.147
					l9.277,24.228l-25.414,28.74c0,0-9.096-48.163-15.615-58.543C2166.383,1243.127,2169.664,1238.046,2175.612,1234.936z"/>
			</g>
			
				<linearGradient id="SVGID_00000032632812711195794080000011640106459990913668_" gradientUnits="userSpaceOnUse" x1="3300.8044" y1="820.1365" x2="3209.9136" y2="1254.3925">
				<stop  offset="0" style="stop-color:#FF928E"/>
				<stop  offset="1" style="stop-color:#FE7062"/>
			</linearGradient>
			<path style="fill:url(#SVGID_00000032632812711195794080000011640106459990913668_);" d="M2972.754,1768.517l61.722-160.265
				c0,0,155.015,103.177,181.61,235.618c-29.081,2.421-81.963,10.495-133.547,37.162
				C3070.551,1818.49,2972.754,1768.517,2972.754,1768.517z"/>
			
				<linearGradient id="SVGID_00000163051567053388506010000007733296448472477591_" gradientUnits="userSpaceOnUse" x1="9341.29" y1="1921.5885" x2="9744.8652" y2="1921.5885" gradientTransform="matrix(-1 0.0095 0.0095 1 12543.6113 -63.4747)">
				<stop  offset="0" style="stop-color:#FEBBBA"/>
				<stop  offset="1" style="stop-color:#FF928E"/>
			</linearGradient>
			<path style="fill:url(#SVGID_00000163051567053388506010000007733296448472477591_);" d="M2839.595,1920.038
				c0,0,173.854,96.077,231.404,12.073c11.948-17.444,14.681-34.691,11.54-51.08c51.584-26.667,104.466-34.741,133.547-37.162
				c8.018,39.927,4.387,82.506-18.707,125.727c-100.419,187.934-380.262-6.705-380.262-6.705L2839.595,1920.038z"/>
			
				<linearGradient id="SVGID_00000083773865101355209160000012620695404236686495_" gradientUnits="userSpaceOnUse" x1="9651.1943" y1="1490.1493" x2="9810.7617" y2="1490.1493" gradientTransform="matrix(-1 0.0095 0.0095 1 12543.6113 -63.4747)">
				<stop  offset="0" style="stop-color:#FEBBBA"/>
				<stop  offset="1" style="stop-color:#FF928E"/>
			</linearGradient>
			<path style="fill:url(#SVGID_00000083773865101355209160000012620695404236686495_);" d="M2852.979,1432.807l53.913,151.226
				c0.893,2.505-0.113,5.298-2.429,6.608c-14.226,8.043-65.534,31.391-128.002-7.385c-6.508-4.039-10.975-10.687-12.03-18.273
				l-18.242-131.157L2852.979,1432.807z"/>
			<g>
				<g>
					
						<linearGradient id="SVGID_00000071549375609323890810000006325705620347232134_" gradientUnits="userSpaceOnUse" x1="9566.5381" y1="1690.4227" x2="9789.2305" y2="2618.3108" gradientTransform="matrix(-1 0 0 1 12275.3223 0)">
						<stop  offset="0" style="stop-color:#09005D"/>
						<stop  offset="1" style="stop-color:#1A0F91"/>
					</linearGradient>
					<path style="fill:url(#SVGID_00000071549375609323890810000006325705620347232134_);" d="M2875.125,2071.877l-94.706-330.733
						c-1.075-3.755-4.278-6.493-8.157-6.945c-17.159-2.002-66.879-7.623-124.286-12.478c-69.148-5.849-149.451-10.588-197.436-6.557
						c-6.822,0.573-10.944,7.789-7.91,13.926c27.287,55.207,139.532,279.773,195.74,353.339c1.862,2.438,4.742,3.862,7.809,3.834
						l219.732-2.045C2872.306,2084.158,2876.885,2078.024,2875.125,2071.877z"/>
					
						<linearGradient id="SVGID_00000059277831591490705300000016139521300743397009_" gradientUnits="userSpaceOnUse" x1="9413.9434" y1="1935.8982" x2="9540.1152" y2="1935.8982" gradientTransform="matrix(-1 0 0 1 12275.3223 0)">
						<stop  offset="0" style="stop-color:#FEBBBA"/>
						<stop  offset="1" style="stop-color:#FF928E"/>
					</linearGradient>
					<path style="fill:url(#SVGID_00000059277831591490705300000016139521300743397009_);" d="M2852.244,1991.972
						c0,0,13.193-54.247,7.871-73.493c-5.321-19.246-15.632-43.991-50-38.492c-34.368,5.499-74.908,19.977-74.908,19.977
						s2.048,25.069,28.168,16.981l-16.197,12.533c0,0,2.315,20.072,24.378,9.349l-15.065,16.621c0,0,9.475,16.485,25.708,5.912
						C2798.43,1950.785,2806.211,1998.504,2852.244,1991.972z"/>
				</g>
				<path style="fill:#91B3FA;" d="M2654.29,1820.452c0,15.354-12.446,27.8-27.8,27.8s-27.8-12.447-27.8-27.8
					c0-15.354,12.447-27.801,27.8-27.801S2654.29,1805.097,2654.29,1820.452z"/>
				<path style="fill:#BDD0FB;" d="M2769.459,1838.85l-19.279-65.409c-2.344-7.939-8.738-13.901-16.666-15.558
					c-60.398-12.604-225.811-15.278-227.475-15.305l0.13-7.906c6.815,0.103,167.822,2.711,228.965,15.467
					c10.779,2.257,19.452,10.326,22.628,21.061l19.279,65.415L2769.459,1838.85z"/>
			</g>
			<g>
				
					<linearGradient id="SVGID_00000062895722475318913850000011658798835810220674_" gradientUnits="userSpaceOnUse" x1="2147.708" y1="2541.2673" x2="1938.634" y2="2817.8552" gradientTransform="matrix(-0.7645 -0.6445 -0.6445 0.7645 6051.2144 732.3934)">
					<stop  offset="0" style="stop-color:#FEBBBA"/>
					<stop  offset="1" style="stop-color:#FF928E"/>
				</linearGradient>
				<path style="fill:url(#SVGID_00000062895722475318913850000011658798835810220674_);" d="M2740.854,1263.628
					c-1.776,2.107-65.256,172.924-65.256,172.924l98.304,34.173l84.219-152.96
					C2858.121,1317.764,2770.594,1228.347,2740.854,1263.628z"/>
				
					<linearGradient id="SVGID_00000142888541037676000660000001482841698405320082_" gradientUnits="userSpaceOnUse" x1="1988.0369" y1="2607.6897" x2="2237.7808" y2="2607.6897" gradientTransform="matrix(-0.7645 -0.6445 -0.6445 0.7645 6051.2144 732.3934)">
					<stop  offset="0" style="stop-color:#09005D"/>
					<stop  offset="1" style="stop-color:#1A0F91"/>
				</linearGradient>
				<path style="fill:url(#SVGID_00000142888541037676000660000001482841698405320082_);" d="M2817.379,1326.444
					c2.159,4.105,2.305,8.947,0.393,13.172l-37.479,82.779c-0.569,1.256-1.285,2.416-2.18,3.465
					c-4.932,5.784-22.114,22.938-39.092,4.255c-14.471-15.924-27.99-30.359-41.272-35.421c-7.756-2.956-16.408,1.123-19.271,8.915
					c-5.897,16.048-17.14,48.672-23.058,79.061c-1.483,7.616,3.221,15.065,10.7,17.132c19.736,5.456,58.594,14.958,92.186,15.696
					c5.518,0.122,10.63-2.792,13.35-7.594c11.969-21.134,45.762-80.233,57.868-95.447c11.248-14.136,35.263-12.075,46.188-10.261
					c4.146,0.689,8.356-0.361,11.683-2.929c9.979-7.702,26.836-25.958,6.56-51.216c-5.041-6.28-3.914-15.552,2.26-20.722
					c11.064-9.265,22.349-25.556,7.197-48.07c-15.338-22.792-37.973-22.379-53.001-18.751c-6.65,1.605-13.907-1.14-17.222-7.124
					c-1.474-2.662-4.025-4.781-8.361-5.15c-8.178-0.696-14.268-7.397-13.625-15.578c1.102-14.03-2.985-31.616-26.281-41.124
					c-42.727-17.438-73.752,22.621-79.184,54.036c-5.432,31.416,41.967,47.689,70.634,48.002
					C2797.431,1293.801,2811.431,1315.134,2817.379,1326.444z"/>
				
					<linearGradient id="SVGID_00000129889362505442379000000006664660078646958479_" gradientUnits="userSpaceOnUse" x1="1841.494" y1="2760.3032" x2="2009.1912" y2="2588.2505" gradientTransform="matrix(-0.7645 -0.6445 -0.6445 0.7645 6051.2144 732.3934)">
					<stop  offset="0" style="stop-color:#FEBBBA"/>
					<stop  offset="1" style="stop-color:#FF928E"/>
				</linearGradient>
				<path style="fill:url(#SVGID_00000129889362505442379000000006664660078646958479_);" d="M2815.375,1442.9
					c0,0,11.815-54.334,34.902-55.061c23.087-0.727,43.719,19.97,18.345,48.855C2837.059,1472.624,2815.375,1442.9,2815.375,1442.9z
					"/>
			</g>
		</g>
	</g>
</g>
</svg>
